<svg width="24" height="24" viewBox="0 0 24 24" fill="none" xmlns="http://www.w3.org/2000/svg">
<rect width="24" height="24" rx="4" fill="#0066FF"/>
<path d="M12.858 11.5938C12.628 11.8467 12.628 12.2139 12.858 12.4668L14.771 14.5712C15.0694 14.8995 15.6203 14.8993 15.9184 14.5708L17.8279 12.4664C18.0574 12.2136 18.0574 11.8471 17.8279 11.5942L15.9184 9.48984C15.6203 9.16129 15.0694 9.16107 14.771 9.48937L12.858 11.5938Z" fill="url(#paint0_linear_17111_2294)"/>
<path d="M14.0774 9.06858C14.4828 8.62107 14.4826 7.97165 14.0771 7.5243L10.6662 3.76193C10.4164 3.48645 10.0463 3.32715 9.65594 3.32715L7.31695 3.32715C6.20285 3.32715 5.5939 4.52008 6.30658 5.30644L10.8867 10.3601C11.4124 10.9401 12.3822 10.94 12.9077 10.3599L14.0774 9.06858Z" fill="white"/>
<path d="M14.0774 14.9314C14.4828 15.3789 14.4826 16.0283 14.0771 16.4757L10.6662 20.2381C10.4164 20.5135 10.0463 20.6729 9.65594 20.6729L7.31695 20.6729C6.20285 20.6729 5.5939 19.4799 6.30658 18.6936L10.8867 13.6399C11.4124 13.0599 12.3822 13.06 12.9077 13.6401L14.0774 14.9314Z" fill="white"/>
<defs>
<linearGradient id="paint0_linear_17111_2294" x1="18" y1="12.0303" x2="12.6855" y2="12.0303" gradientUnits="userSpaceOnUse">
<stop stop-color="#001F3D"/>
<stop offset="0.0001" stop-color="#001F3D"/>
<stop offset="1" stop-color="#0038FF"/>
</linearGradient>
</defs>
</svg>
